<?xml version="1.0" encoding="UTF-8" standalone="no"?>
<svg
   xmlns:dc="http://purl.org/dc/elements/1.1/"
   xmlns:cc="http://creativecommons.org/ns#"
   xmlns:rdf="http://www.w3.org/1999/02/22-rdf-syntax-ns#"
   xmlns:svg="http://www.w3.org/2000/svg"
   xmlns="http://www.w3.org/2000/svg"
   xmlns:sodipodi="http://sodipodi.sourceforge.net/DTD/sodipodi-0.dtd"
   xmlns:inkscape="http://www.inkscape.org/namespaces/inkscape"
   inkscape:version="1.0 (4035a4fb49, 2020-05-01)"
   height="616.91003"
   width="3099.8091"
   sodipodi:docname="Full_Colour.svg"
   version="1.1"
   viewBox="0 0 3099.809 616.91003"
   id="a">
  <metadata
     id="metadata1087">
    <rdf:RDF>
      <cc:Work
         rdf:about="">
        <dc:format>image/svg+xml</dc:format>
        <dc:type
           rdf:resource="http://purl.org/dc/dcmitype/StillImage" />
      </cc:Work>
    </rdf:RDF>
  </metadata>
  <sodipodi:namedview
     inkscape:current-layer="a"
     inkscape:window-maximized="1"
     inkscape:window-y="-8"
     inkscape:window-x="1192"
     inkscape:cy="445.04998"
     inkscape:cx="1293.5309"
     inkscape:zoom="0.31533759"
     inkscape:guide-bbox="true"
     showguides="true"
     showgrid="false"
     id="namedview1085"
     inkscape:window-height="1009"
     inkscape:window-width="1920"
     inkscape:pageshadow="2"
     inkscape:pageopacity="0"
     guidetolerance="10"
     gridtolerance="10"
     objecttolerance="10"
     borderopacity="1"
     bordercolor="#666666"
     pagecolor="#ffffff">
    <sodipodi:guide
       id="guide1089"
       orientation="1,0"
       position="1096.119,354.35621" />
    <sodipodi:guide
       id="guide1091"
       orientation="1,0"
       position="1574.1781,237.81445" />
  </sodipodi:namedview>
  <defs
     id="defs978">
    <style
       id="style961">.g{fill:#ed675a;}.h{fill:#e62b2f;}.i{fill:#be1622;}.j{fill:#6b1913;}.k{stroke:#6b1913;stroke-miterlimit:10;stroke-width:9px;}.k,.l{fill:none;}.m{fill:#ed6b5c;}.n{fill:#8f1913;}.o{clip-path:url(#b);}.p{clip-path:url(#c);}.q{clip-path:url(#e);}.r{clip-path:url(#d);}.s{clip-path:url(#f);}</style>
    <clipPath
       id="b">
      <path
         id="path963"
         d="m 259.46,778.88 c -48.54,0 -87.89,-39.35 -87.89,-87.89 V 274.83 c 0,-49.86 40.56,-90.42 90.42,-90.42 h 334.06 c 48.54,0 87.89,39.35 87.89,87.89 0,48.54 -39.35,87.89 -87.89,87.89 h -248.7 v 330.8 c 0,48.54 -39.35,87.89 -87.89,87.89 z"
         class="l" />
    </clipPath>
    <clipPath
       id="c">
      <path
         id="path966"
         d="m 798.58,360.19 c -34.15,0 -63.75,-19.47 -78.3,-47.92 -2.25,-4.4 -8.9,-2.77 -8.9,2.17 v 370.48 c 0,50.37 41.75,91.39 92.06,89.04 46.6,-2.18 83.72,-40.65 83.72,-87.79 V 365.06 c 0,-2.69 -2.18,-4.86 -4.86,-4.86 h -83.72 z"
         class="l" />
    </clipPath>
    <clipPath
       id="d">
      <path
         id="path969"
         d="m 809.94,241.68 h -20.53 c -4.77,0 -9.18,2.55 -11.57,6.68 l -10.26,17.78 c -2.39,4.13 -2.39,9.23 0,13.36 l 10.26,17.78 c 2.39,4.13 6.8,6.68 11.57,6.68 h 20.53 c 4.77,0 9.18,-2.55 11.57,-6.68 l 10.26,-17.78 c 2.39,-4.13 2.39,-9.23 0,-13.36 l -10.26,-17.78 c -2.39,-4.13 -6.8,-6.68 -11.57,-6.68 z"
         class="j" />
    </clipPath>
    <clipPath
       id="e">
      <path
         id="path972"
         d="m 799.67,201.03 c -39.64,0 -71.78,32.14 -71.78,71.78 0,39.64 32.14,71.78 71.78,71.78 39.64,0 71.78,-32.14 71.78,-71.78 0,-39.64 -32.14,-71.78 -71.78,-71.78 z m 43.2,89.94 c 0,4.2 -2.24,8.07 -5.87,10.17 l -31.46,18.16 c -3.63,2.1 -8.11,2.1 -11.74,0 l -31.46,-18.16 c -3.63,-2.1 -5.87,-5.97 -5.87,-10.17 v -36.33 c 0,-4.19 2.24,-8.07 5.87,-10.17 l 31.46,-18.16 c 3.63,-2.1 8.11,-2.1 11.74,0 L 837,244.47 c 3.63,2.1 5.87,5.97 5.87,10.17 z"
         class="j" />
    </clipPath>
    <clipPath
       id="f">
      <path
         id="path975"
         d="m 1268.73,547.48 c -0.08,-42.7 -0.17,-86.85 -0.03,-139.03 0.08,-30.31 -11.99,-59.6 -33.11,-80.35 L 1120.07,214.59 c -19.8,-19.45 -45.78,-30.17 -73.15,-30.17 H 838.87 c -4.35,0 -5.64,5.87 -1.71,7.75 29.57,14.15 50,44.35 50,79.32 v 84.65 c 0,2.24 1.82,4.06 4.06,4.06 h 124.58 c 1.07,0 2.09,0.42 2.85,1.16 l 73,71.73 c 0.78,0.77 1.22,1.82 1.21,2.91 -0.05,40.72 0.02,76.76 0.09,111.83 0.09,45.55 0.18,92.66 0,149.64 -0.16,48.54 39.06,88.01 87.6,88.17 0.1,0 0.19,0 0.29,0 48.4,0 87.72,-39.16 87.88,-87.6 0.19,-57.44 0.09,-104.78 0,-150.56 z"
         class="l" />
    </clipPath>
  </defs>
  <g
     transform="translate(-171.57,-168.73)"
     id="g988"
     clip-path="url(#b)"
     class="o">
    <g
       transform="translate(-254.49098,116.60377)"
       id="g986">
      <path
         id="path980"
         d="m 14.26,1320.71 c 151.33,-24.12 357.26,-82.8 520.59,-244.14 C 714.76,898.85 704.92,732.97 868.75,581.11 975.53,482.14 1164.23,381.56 1522.18,398 1512.61,243.62 1503.03,89.23 1493.46,-65.15 1033.91,-17.27 574.35,30.6 114.79,78.47 81.28,492.55 47.77,906.63 14.26,1320.71 Z"
         class="h" />
      <path
         id="path982"
         d="m 1309.13,-202.79 c -83.47,131.58 -222.95,312.11 -445.2,452.38 -219.16,138.32 -362.5,138.83 -617.53,269.27 -146.22,74.79 -346.72,201.27 -556.5,423.66 -13.16,-491.87 -26.33,-983.74 -39.49,-1475.61 552.9,110.1 1105.81,220.2 1658.72,330.3 z"
         class="m" />
      <path
         id="path984"
         d="M -113.79,627.79 C 37.54,603.67 243.47,544.99 406.8,383.65 586.71,205.93 576.87,40.04 740.7,-111.82 c 106.78,-98.97 295.48,-199.55 653.43,-183.11 -9.57,-154.38 -19.15,-308.77 -28.72,-463.15 -459.56,47.87 -919.12,95.74 -1378.67,143.61 -33.51,414.09 -67.02,828.17 -100.53,1242.26 z"
         class="h" />
    </g>
  </g>
  <g
     transform="translate(-171.57,-168.73)"
     id="g1004"
     clip-path="url(#c)"
     class="p">
    <path
       id="path990"
       d="m 399.13,548.09 c 195.76,84.68 423.02,44.83 574.5,-100.2 161.1,-154.24 206.2,-398.45 110.22,-604.56 -234.92,85.72 -469.84,171.45 -704.76,257.18 6.68,149.19 13.36,298.39 20.04,447.58 z"
       class="n" />
    <g
       id="g1002">
      <g
         id="g996">
        <rect
           id="rect992"
           height="1348.4301"
           width="1348.4301"
           y="-149.25"
           x="580.91998"
           class="i" />
        <path
           id="path994"
           d="m 421.43,1279.69 c 83.47,-131.58 222.95,-312.11 445.2,-452.38 219.16,-138.32 362.5,-138.83 617.53,-269.27 146.22,-74.79 346.72,-201.27 556.5,-423.65 13.16,491.87 26.33,983.74 39.49,1475.61 C 1527.24,1499.9 974.34,1389.8 421.43,1279.69 Z"
           class="n" />
      </g>
      <path
         id="path998"
         d="m 482.46,859.62 c 151.33,-24.12 357.26,-82.8 520.59,-244.14 179.91,-177.72 170.07,-343.6 333.9,-495.46 106.78,-98.97 295.48,-199.55 653.43,-183.11 -9.57,-154.38 -19.15,-308.77 -28.72,-463.15 -459.56,47.87 -919.12,95.74 -1378.67,143.61 C 549.48,31.45 515.97,445.53 482.46,859.61 Z"
         class="h" />
      <path
         id="path1000"
         d="m 83.45,481.97 c 112.55,7.7 547.76,24.14 918.54,-283.91 186.92,-155.29 286.45,-334.06 337.35,-447.58 -24.3,-172.89 -76.63,-275.32 -156.99,-307.29 -197.3,-78.5 -563.6,267.74 -1098.9,1038.78 z"
         class="g" />
    </g>
  </g>
  <g
     transform="translate(-171.57,-168.73)"
     id="g1024">
    <path
       id="path1006"
       d="m 809.94,241.68 h -20.53 c -4.77,0 -9.18,2.55 -11.57,6.68 l -10.26,17.78 c -2.39,4.13 -2.39,9.23 0,13.36 l 10.26,17.78 c 2.39,4.13 6.8,6.68 11.57,6.68 h 20.53 c 4.77,0 9.18,-2.55 11.57,-6.68 l 10.26,-17.78 c 2.39,-4.13 2.39,-9.23 0,-13.36 l -10.26,-17.78 c -2.39,-4.13 -6.8,-6.68 -11.57,-6.68 z"
       class="j" />
    <g
       id="g1022"
       clip-path="url(#d)"
       class="r">
      <path
         id="path1008"
         d="m 399.13,547.37 c 195.76,84.68 423.02,44.83 574.5,-100.2 161.1,-154.24 206.2,-398.45 110.22,-604.56 -234.92,85.72 -469.84,171.45 -704.76,257.18 6.68,149.19 13.36,298.39 20.04,447.58 z"
         class="j" />
      <g
         id="g1020">
        <g
           id="g1014">
          <rect
             id="rect1010"
             height="1348.4301"
             width="1348.4301"
             y="-149.25"
             x="585.27002"
             class="j" />
          <path
             id="path1012"
             d="m 425.78,1279.69 c 83.47,-131.58 222.95,-312.11 445.2,-452.38 219.16,-138.32 362.5,-138.83 617.53,-269.27 146.22,-74.79 346.72,-201.27 556.5,-423.65 13.16,491.87 26.33,983.74 39.49,1475.61 C 1531.59,1499.9 978.69,1389.8 425.78,1279.69 Z"
             class="j" />
        </g>
        <path
           id="path1016"
           d="m 486.81,859.62 c 151.33,-24.12 357.26,-82.8 520.59,-244.14 179.91,-177.72 170.07,-343.6 333.9,-495.46 106.78,-98.97 295.48,-199.55 653.43,-183.11 -9.57,-154.38 -19.15,-308.77 -28.72,-463.15 -459.56,47.87 -919.12,95.74 -1378.67,143.61 C 553.83,31.45 520.32,445.53 486.81,859.61 Z"
           class="j" />
        <path
           id="path1018"
           d="m 12.95,554.51 c 112.55,7.7 547.76,24.14 918.54,-283.91 186.92,-155.29 286.45,-334.06 337.35,-447.58 -24.3,-172.89 -76.63,-275.32 -156.99,-307.29 -197.31,-78.51 -563.6,267.74 -1098.9,1038.78 z"
           class="j" />
      </g>
    </g>
  </g>
  <g
     transform="translate(-171.57,-168.73)"
     id="g1044">
    <path
       id="path1026"
       d="m 799.67,201.03 c -39.64,0 -71.78,32.14 -71.78,71.78 0,39.64 32.14,71.78 71.78,71.78 39.64,0 71.78,-32.14 71.78,-71.78 0,-39.64 -32.14,-71.78 -71.78,-71.78 z m 43.2,89.94 c 0,4.2 -2.24,8.07 -5.87,10.17 l -31.46,18.16 c -3.63,2.1 -8.11,2.1 -11.74,0 l -31.46,-18.16 c -3.63,-2.1 -5.87,-5.97 -5.87,-10.17 v -36.33 c 0,-4.19 2.24,-8.07 5.87,-10.17 l 31.46,-18.16 c 3.63,-2.1 8.11,-2.1 11.74,0 L 837,244.47 c 3.63,2.1 5.87,5.97 5.87,10.17 z"
       class="j" />
    <g
       id="g1042"
       clip-path="url(#e)"
       class="q">
      <path
         id="path1028"
         d="m 399.13,548.09 c 195.76,84.68 423.02,44.83 574.5,-100.2 161.1,-154.24 206.2,-398.45 110.22,-604.56 -234.92,85.72 -469.84,171.45 -704.76,257.18 6.68,149.19 13.36,298.39 20.04,447.58 z"
         class="j" />
      <g
         id="g1040">
        <g
           id="g1034">
          <rect
             id="rect1030"
             height="1348.4301"
             width="1348.4301"
             y="-149.25"
             x="580.91998"
             class="j" />
          <path
             id="path1032"
             d="m 421.43,1279.69 c 83.47,-131.58 222.95,-312.11 445.2,-452.38 219.16,-138.32 362.5,-138.83 617.53,-269.27 146.22,-74.79 346.72,-201.27 556.5,-423.65 13.16,491.87 26.33,983.74 39.49,1475.61 C 1527.24,1499.9 974.34,1389.8 421.43,1279.69 Z"
             class="j" />
        </g>
        <path
           id="path1036"
           d="m 482.46,859.62 c 151.33,-24.12 357.26,-82.8 520.59,-244.14 179.91,-177.72 170.07,-343.6 333.9,-495.46 106.78,-98.97 295.48,-199.55 653.43,-183.11 -9.57,-154.38 -19.15,-308.77 -28.72,-463.15 -459.56,47.87 -919.12,95.74 -1378.67,143.61 C 549.48,31.45 515.97,445.53 482.46,859.61 Z"
           class="j" />
        <path
           id="path1038"
           d="M 880.36,564.85 C 914.14,457.22 1031.84,37.9 818.96,-394.6 711.64,-612.63 561.09,-751.19 462.61,-827.21 288.83,-843.99 177,-817.04 127.14,-746.38 4.71,-572.87 255.77,-135.81 880.36,564.85 Z"
           class="j" />
      </g>
    </g>
  </g>
  <g
     transform="translate(-171.57002,-168.73)"
     id="g1060"
     clip-path="url(#f)"
     class="s">
    <path
       id="path1046"
       d="M 399.68,547.37 C 595.44,632.05 822.7,592.2 974.18,447.17 1135.28,292.93 1180.38,48.72 1084.4,-157.39 849.49,-71.67 614.56,14.06 379.64,99.79 386.32,248.98 393,398.18 399.68,547.37 Z"
       class="n" />
    <g
       id="g1058">
      <g
         id="g1052">
        <rect
           id="rect1048"
           height="1348.4301"
           width="1348.4301"
           y="-149.25"
           x="585.27002"
           class="i" />
        <path
           id="path1050"
           d="m 425.78,1279.69 c 83.47,-131.58 222.95,-312.11 445.2,-452.38 219.16,-138.32 362.5,-138.83 617.53,-269.27 146.22,-74.79 346.72,-201.27 556.5,-423.65 13.16,491.87 26.33,983.74 39.49,1475.61 C 1531.59,1499.9 978.69,1389.8 425.78,1279.69 Z"
           class="n" />
      </g>
      <path
         id="path1054"
         d="m 486.81,859.62 c 151.33,-24.12 357.26,-82.8 520.59,-244.14 179.91,-177.72 170.07,-343.6 333.9,-495.46 106.78,-98.97 295.48,-199.55 653.43,-183.11 -9.57,-154.38 -19.15,-308.77 -28.72,-463.15 -459.56,47.87 -919.12,95.74 -1378.67,143.61 C 553.83,31.45 520.32,445.53 486.81,859.61 Z"
         class="h" />
      <path
         id="path1056"
         d="m 69.01,523.43 c 112.55,7.7 547.76,24.14 918.54,-283.91 186.92,-155.29 286.45,-334.06 337.35,-447.58 -24.3,-172.89 -76.63,-275.32 -156.99,-307.29 -197.3,-78.5 -563.6,267.74 -1098.9,1038.78 z"
         class="m" />
    </g>
  </g>
  <g
     transform="matrix(1.4044546,0,0,1.4044546,-879.05297,-355.14166)"
     id="g1080">
    <path
       id="path1062"
       d="m 1760.3,486.82 v 80.57 h -13.55 V 394.91 h 61.85 c 34,0 51.99,18.23 51.99,45.34 0,21.93 -13.06,36.22 -32.28,40.41 17.74,4.19 29.57,15.77 29.57,45.09 v 6.65 c 0,12.07 -0.99,28.34 2.22,34.99 h -13.55 c -3.2,-7.39 -2.46,-21.19 -2.46,-35.97 v -4.44 c 0,-28.34 -8.38,-40.16 -41.4,-40.16 h -42.38 z m 0,-12.32 h 41.64 c 30.31,0 44.35,-11.33 44.35,-34 0,-21.19 -13.8,-33.26 -40.66,-33.26 h -45.34 v 67.27 z"
       class="j" />
    <path
       id="path1064"
       d="m 1999.04,505.55 c 0,34.25 -18.97,64.8 -55.69,64.8 -33.26,0 -53.96,-27.35 -53.96,-64.56 0,-35.23 19.47,-64.56 55.19,-64.56 32.77,0 54.45,25.63 54.45,64.31 z m -96.59,0.24 c 0,29.32 15.77,52.98 41.89,52.98 26.12,0 41.64,-21.93 41.64,-52.98 0,-29.08 -14.78,-52.97 -42.13,-52.97 -27.35,0 -41.39,23.41 -41.39,52.97 z"
       class="j" />
    <path
       id="path1066"
       d="m 2029.58,385.8 h 12.32 v 79.09 c 5.91,-12.32 17.99,-23.65 42.13,-23.65 29.08,0 50.51,23.9 50.51,61.84 0,37.94 -19.22,67.27 -53.71,67.27 -20.7,0 -32.53,-8.38 -38.93,-22.42 0,7.88 -0.25,16.02 -0.49,19.47 h -12.07 c 0.25,-14.04 0.25,-28.09 0.25,-42.13 V 385.81 Z m 91.91,117.53 c 0,-30.8 -15.28,-50.51 -38.68,-50.51 -30.8,0 -41.64,20.94 -41.64,53.22 0,29.08 9.61,52.73 40.16,52.73 24.89,0 40.16,-20.7 40.16,-55.44 z"
       class="j" />
    <path
       id="path1068"
       d="m 2266.36,505.55 c 0,34.25 -18.97,64.8 -55.68,64.8 -33.26,0 -53.96,-27.35 -53.96,-64.56 0,-35.23 19.47,-64.56 55.19,-64.56 32.77,0 54.45,25.63 54.45,64.31 z m -96.59,0.24 c 0,29.32 15.77,52.98 41.89,52.98 26.12,0 41.64,-21.93 41.64,-52.98 0,-29.08 -14.78,-52.97 -42.13,-52.97 -27.35,0 -41.39,23.41 -41.39,52.97 z"
       class="j" />
    <path
       id="path1070"
       d="M 2298.87,567.39 V 394.91 h 19.71 c 26.86,41.4 89.93,137.74 100.78,156.46 h 0.24 c -1.48,-24.88 -1.23,-50.26 -1.23,-78.35 v -78.11 h 13.55 v 172.48 h -18.23 C 2388.06,527.47 2324,427.19 2311.68,408.22 h -0.25 c 1.23,22.67 0.99,47.8 0.99,79.09 v 80.08 z"
       class="j" />
    <path
       id="path1072"
       d="m 2576.06,505.55 c 0,34.25 -18.97,64.8 -55.69,64.8 -33.26,0 -53.96,-27.35 -53.96,-64.56 0,-35.23 19.47,-64.56 55.19,-64.56 32.77,0 54.45,25.63 54.45,64.31 z m -96.59,0.24 c 0,29.32 15.77,52.98 41.89,52.98 26.12,0 41.64,-21.93 41.64,-52.98 0,-29.08 -14.78,-52.97 -42.13,-52.97 -27.35,0 -41.4,23.41 -41.4,52.97 z"
       class="j" />
    <path
       id="path1074"
       d="m 2588.12,444.2 h 22.92 v -38.44 h 12.32 v 38.44 h 29.32 v 11.58 h -29.32 v 80.08 c 0,13.8 2.96,21.68 14.78,21.68 3.7,0 8.87,-0.24 12.81,-1.48 v 10.84 c -4.19,1.72 -10.1,2.22 -15.28,2.22 -15.77,0 -24.64,-7.88 -24.64,-27.6 v -85.75 h -22.92 v -11.58 z"
       class="j" />
    <path
       id="path1076"
       d="m 2660.31,444.2 h 22.92 v -38.44 h 12.32 v 38.44 h 29.32 v 11.58 h -29.32 v 80.08 c 0,13.8 2.96,21.68 14.78,21.68 3.69,0 8.87,-0.24 12.81,-1.48 v 10.84 c -4.19,1.72 -10.1,2.22 -15.28,2.22 -15.77,0 -24.64,-7.88 -24.64,-27.6 v -85.75 h -22.92 v -11.58 z"
       class="j" />
    <path
       id="path1078"
       d="m 2754.17,533.39 c 4.19,16.02 15.52,25.63 34.99,25.63 21.93,0 30.8,-10.1 30.8,-23.9 0,-13.8 -5.92,-20.94 -33.51,-27.6 -31.79,-7.64 -39.67,-17.25 -39.67,-33.51 0,-16.26 12.81,-32.77 40.66,-32.77 27.85,0 41.15,17 43.12,34.5 h -12.32 c -2.22,-10.35 -10.35,-23.16 -31.29,-23.16 -20.94,0 -27.6,10.6 -27.6,20.45 0,11.33 5.91,17 30.31,22.92 34.74,8.38 43.37,19.71 43.37,38.19 0,22.42 -18.24,36.22 -44.11,36.22 -28.09,0 -43.86,-14.79 -47.31,-36.96 h 12.57 z"
       class="j" />
  </g>
  <line
     style="stroke-width:15;stroke-miterlimit:10;stroke-dasharray:none"
     id="line1082"
     y2="611.54004"
     x2="1335.7181"
     y1="0"
     x1="1335.7181"
     class="k" />
</svg>
